<svg width="22" height="22" viewBox="0 0 22 22" fill="none" xmlns="http://www.w3.org/2000/svg">
<path d="M8.28612 17.0501L2.72196 11.4859C2.45612 11.2201 2.45612 10.7801 2.72196 10.5143L8.28612 4.95011C8.55196 4.68427 8.99196 4.68427 9.25779 4.95011C9.52362 5.21594 9.52362 5.65594 9.25779 5.92177L4.17946 11.0001L9.25779 16.0784C9.52362 16.3443 9.52362 16.7843 9.25779 17.0501C9.12946 17.1876 8.94612 17.2518 8.77196 17.2518C8.59779 17.2518 8.42362 17.1876 8.28612 17.0501Z" fill="#EC4899"/>
<path d="M3.36414 11.6875C2.9883 11.6875 2.67664 11.3758 2.67664 11C2.67664 10.6242 2.9883 10.3125 3.36414 10.3125H18.7916C19.1675 10.3125 19.4791 10.6242 19.4791 11C19.4791 11.3758 19.1675 11.6875 18.7916 11.6875H3.36414Z" fill="#EC4899"/>
</svg>
