<svg width="20" height="20" viewBox="0 0 20 20" fill="none" xmlns="http://www.w3.org/2000/svg">
<path d="M2.5 18.3333C2.15833 18.3333 1.875 18.0499 1.875 17.7083C1.875 17.3666 2.15833 17.0833 2.5 17.0833H17.5C17.8417 17.0833 18.125 17.3666 18.125 17.7083C18.125 18.0499 17.8417 18.3333 17.5 18.3333H2.5Z" fill="#7C3AED"/>
<path d="M10.9921 2.90127L9.9838 3.9096C9.90047 3.99294 9.86714 4.12627 9.90047 4.24294C10.5338 6.45127 12.3005 8.21794 14.5088 8.85127C14.5421 8.8596 14.5755 8.86794 14.6088 8.86794C14.7005 8.86794 14.7838 8.8346 14.8505 8.76794L15.8505 7.7596C16.6755 6.94294 17.0755 6.15127 17.0755 5.35127C17.0838 4.52627 16.6838 3.72627 15.8505 2.90127C14.2338 1.2846 12.6505 1.24294 10.9921 2.90127Z" fill="#7C3AED"/>
<path d="M12.3087 9.24224C12.1253 9.1339 11.9503 9.01724 11.7753 8.89224C11.6337 8.80057 11.467 8.66724 11.3087 8.5339C11.292 8.52557 11.2337 8.47557 11.167 8.4089C10.892 8.17557 10.5837 7.87557 10.3087 7.54224C10.2837 7.52557 10.242 7.46724 10.1837 7.39224C10.1003 7.29224 9.95868 7.12557 9.83368 6.9339C9.73368 6.8089 9.61701 6.62557 9.50868 6.44224C9.37535 6.21724 9.25868 5.99224 9.14201 5.7589C8.98905 5.43112 8.55884 5.33375 8.30306 5.58952L3.61701 10.2756C3.50868 10.3839 3.40868 10.5922 3.38368 10.7339L2.93368 13.9256C2.85035 14.4922 3.00868 15.0256 3.35868 15.3839C3.65868 15.6756 4.07535 15.8339 4.52535 15.8339C4.62535 15.8339 4.72535 15.8256 4.82535 15.8089L8.02535 15.3589C8.17535 15.3339 8.38368 15.2339 8.48368 15.1256L13.1775 10.4318C13.4281 10.1811 13.3339 9.74985 13.0087 9.6089C12.767 9.49224 12.5337 9.37557 12.3087 9.24224Z" fill="#7C3AED"/>
</svg>
