<svg width="20" height="21" viewBox="0 0 20 21" fill="none" xmlns="http://www.w3.org/2000/svg">
<path d="M12.592 19.0583C8.892 19.0583 7.10867 17.6 6.80034 14.3333C6.767 13.9917 7.017 13.6833 7.367 13.65C7.70034 13.6166 8.017 13.875 8.05034 14.2167C8.292 16.8333 9.52534 17.8083 12.6003 17.8083H12.7087C16.1003 17.8083 17.3003 16.6083 17.3003 13.2167V7.78332C17.3003 4.39165 16.1003 3.19165 12.7087 3.19165H12.6003C9.50867 3.19165 8.27534 4.18332 8.05034 6.84998C8.00867 7.19165 7.717 7.44998 7.367 7.41665C7.017 7.39165 6.767 7.08332 6.792 6.74165C7.07534 3.42498 8.867 1.94165 12.592 1.94165H12.7003C16.792 1.94165 18.542 3.69165 18.542 7.78332V13.2167C18.542 17.3083 16.792 19.0583 12.7003 19.0583H12.592Z" fill="#7C3AED"/>
<path d="M3.01587 11.125C2.6742 11.125 2.39087 10.8417 2.39087 10.5C2.39087 10.1583 2.6742 9.875 3.01587 9.875H12.4992C12.8409 9.875 13.1242 10.1583 13.1242 10.5C13.1242 10.8417 12.8409 11.125 12.4992 11.125H3.01587Z" fill="#7C3AED"/>
<path d="M4.43288 13.7334L1.64121 10.9418C1.39954 10.7001 1.39954 10.3001 1.64121 10.0584L4.43288 7.26676C4.67454 7.02509 5.07454 7.02509 5.31621 7.26676C5.55788 7.50843 5.55788 7.90843 5.31621 8.15009L2.96621 10.5001L5.31621 12.8501C5.55788 13.0918 5.55788 13.4918 5.31621 13.7334C5.19954 13.8584 5.03288 13.9168 4.87454 13.9168C4.71621 13.9168 4.55788 13.8584 4.43288 13.7334Z" fill="#7C3AED"/>
</svg>
