<svg width="20" height="20" viewBox="0 0 20 20" fill="none" xmlns="http://www.w3.org/2000/svg">
<path d="M17.4331 5.60839C13.0248 5.16673 8.62481 5.00006 4.26647 5.44173L2.56647 5.60839C2.21647 5.64173 1.90814 5.39173 1.87481 5.04173C1.84147 4.69173 2.09147 4.39173 2.43314 4.35839L4.13314 4.19173C8.56647 3.74173 13.0581 3.91673 17.5581 4.35839C17.8998 4.39173 18.1498 4.70006 18.1165 5.04173C18.0915 5.36673 17.8165 5.60839 17.4998 5.60839C17.4831 5.60839 17.4581 5.60839 17.4331 5.60839Z" fill="#FEFCFB"/>
<path d="M6.97554 4.75841C6.6422 4.70008 6.40887 4.37508 6.4672 4.04175L6.65054 2.95008C6.78387 2.15008 6.9672 1.04175 8.90887 1.04175H11.0922C13.0422 1.04175 13.2255 2.19175 13.3505 2.95841L13.5339 4.04175C13.5922 4.38341 13.3589 4.70842 13.0255 4.75841C12.6839 4.81675 12.3589 4.58341 12.3089 4.25008L12.1255 3.16675C12.0089 2.44175 11.9839 2.30008 11.1005 2.30008H8.9172C8.03387 2.30008 8.0172 2.41675 7.8922 3.15841L7.70054 4.24175C7.65054 4.55008 7.38387 4.76675 7.08387 4.76675C7.05054 4.76675 7.0172 4.76675 6.97554 4.75841Z" fill="#FEFCFB"/>
<path d="M7.32524 18.9584C4.41691 18.9584 4.30024 17.3501 4.20857 16.0501L3.66691 7.6584C3.64191 7.31673 3.90857 7.01673 4.25024 6.99173C4.60024 6.97506 4.89191 7.2334 4.91691 7.57506L5.45857 15.9667C5.55024 17.2334 5.58357 17.7084 7.32524 17.7084H12.6752C14.4252 17.7084 14.4586 17.2334 14.5419 15.9667L15.0836 7.57506C15.1086 7.2334 15.4086 6.97506 15.7502 6.99173C16.0919 7.01673 16.3586 7.3084 16.3336 7.6584L15.7919 16.0501C15.7002 17.3501 15.5836 18.9584 12.6752 18.9584H7.32524Z" fill="#FEFCFB"/>
<path d="M8.6084 14.375C8.26673 14.375 7.9834 14.0917 7.9834 13.75C7.9834 13.4083 8.26673 13.125 8.6084 13.125H11.3834C11.7251 13.125 12.0084 13.4083 12.0084 13.75C12.0084 14.0917 11.7251 14.375 11.3834 14.375H8.6084Z" fill="#FEFCFB"/>
<path d="M7.91675 11.0417C7.57508 11.0417 7.29175 10.7584 7.29175 10.4167C7.29175 10.0751 7.57508 9.79175 7.91675 9.79175H12.0834C12.4251 9.79175 12.7084 10.0751 12.7084 10.4167C12.7084 10.7584 12.4251 11.0417 12.0834 11.0417H7.91675Z" fill="#FEFCFB"/>
</svg>
