<svg width="54" height="54" viewBox="0 0 54 54" fill="none" xmlns="http://www.w3.org/2000/svg">
<rect width="54" height="54" rx="27" fill="#FEFCFB"/>
<path fill-rule="evenodd" clip-rule="evenodd" d="M18.8542 19.9167C18.8542 15.4259 22.5092 11.7709 27 11.7709C31.4908 11.7709 35.1458 15.4259 35.1458 19.9167C35.1458 24.4075 31.4908 28.0625 27 28.0625C22.5092 28.0625 18.8542 24.4075 18.8542 19.9167ZM20.9792 19.9167C20.9792 23.2317 23.685 25.9375 27 25.9375C30.315 25.9375 33.0208 23.2317 33.0208 19.9167C33.0208 16.6017 30.315 13.8959 27 13.8959C23.685 13.8959 20.9792 16.6017 20.9792 19.9167Z" fill="#7C3AED"/>
<path d="M38.1069 41.1667C38.1069 36.2792 33.1202 32.3125 27.0002 32.3125C20.8802 32.3125 15.8936 36.2792 15.8936 41.1667C15.8936 41.7475 15.4119 42.2292 14.8311 42.2292C14.2502 42.2292 13.7686 41.7475 13.7686 41.1667C13.7686 35.1175 19.7044 30.1875 27.0002 30.1875C34.2961 30.1875 40.2319 35.1175 40.2319 41.1667C40.2319 41.7475 39.7502 42.2292 39.1694 42.2292C38.5885 42.2292 38.1069 41.7475 38.1069 41.1667Z" fill="#7C3AED"/>
</svg>
